<svg width="23" height="22" viewBox="0 0 23 22" fill="none" xmlns="http://www.w3.org/2000/svg">
<g clip-path="url(#clip0_1_11)">
<path d="M22.924 6.468C22.88 5.47067 22.7113 4.58333 22.418 3.806C22.1393 3.07267 21.714 2.42 21.142 1.848C20.614 1.29067 19.9687 0.865334 19.206 0.572001C18.3993 0.278667 17.5047 0.110001 16.522 0.066H16.302C15.29 0.0219994 13.8527 0 11.99 0C10.1273 0 8.68999 0.0219994 7.67799 0.066H7.45799C6.47532 0.110001 5.58066 0.278667 4.77399 0.572001C4.01132 0.865334 3.35866 1.28333 2.81599 1.826C2.27332 2.36867 1.85532 3.02133 1.56199 3.784C1.25399 4.59067 1.08532 5.48533 1.05599 6.468C1.02666 7.02533 1.00466 7.55333 0.98999 8.052V11V13.948C1.00466 14.4467 1.02666 14.9747 1.05599 15.532C1.09999 16.5293 1.26866 17.4167 1.56199 18.194C1.84066 18.9273 2.26599 19.58 2.83799 20.152C3.36599 20.7093 4.01132 21.1347 4.77399 21.428C5.58066 21.736 6.47532 21.9047 7.45799 21.934H7.67799C8.68999 21.978 10.1237 22 11.979 22C13.8343 22 15.268 21.978 16.28 21.934H16.522C17.49 21.89 18.3773 21.7213 19.184 21.428C19.9173 21.1347 20.5663 20.7093 21.131 20.152C21.6957 19.5947 22.121 18.9493 22.407 18.216C22.693 17.4827 22.8653 16.588 22.924 15.532V15.29C22.968 14.278 22.99 12.8443 22.99 10.989C22.99 9.13367 22.968 7.7 22.924 6.688V6.468ZM20.944 15.444C20.9147 16.2507 20.79 16.9327 20.57 17.49C20.3793 17.974 20.1043 18.3957 19.745 18.755C19.3857 19.1143 18.964 19.3893 18.48 19.58C17.9227 19.8 17.2407 19.9247 16.434 19.954C15.862 19.9833 15.3413 20.0053 14.872 20.02H11.99H9.10799C8.63866 20.0053 8.11799 19.9833 7.54599 19.954C6.73932 19.9247 6.05732 19.8 5.49999 19.58C5.03066 19.404 4.61266 19.1327 4.24599 18.766C3.86466 18.3553 3.59332 17.93 3.43199 17.49C3.21199 16.962 3.08732 16.28 3.05799 15.444C3.02866 14.8867 3.00666 14.3733 2.99199 13.904V11.022V8.14C3.00666 7.656 3.02866 7.13533 3.05799 6.578C3.08732 5.742 3.20466 5.06367 3.40999 4.543C3.61532 4.02233 3.89766 3.586 4.25699 3.234C4.61632 2.882 5.03066 2.618 5.49999 2.442C6.05732 2.222 6.73932 2.09733 7.54599 2.068C8.10332 2.03867 8.62399 2.01667 9.10799 2.002H11.99H14.894C15.3633 2.01667 15.8767 2.03867 16.434 2.068C17.2407 2.09733 17.9227 2.222 18.48 2.442C18.9347 2.60333 19.3563 2.87833 19.745 3.267C20.1337 3.65567 20.4087 4.07733 20.57 4.532C20.79 5.148 20.9147 5.83 20.944 6.578V6.798C20.988 7.78067 21.01 9.18133 21.01 11C21.01 12.8187 20.988 14.212 20.944 15.18V15.444ZM17.006 11.858C16.8887 11.7113 16.8373 11.5867 16.852 11.484C16.852 11.396 16.9033 11.2713 17.006 11.11L17.556 10.318C17.9813 9.702 18.3333 9.15933 18.612 8.69C19.0227 8.01533 19.2573 7.53133 19.316 7.238C19.3747 7.04733 19.3637 6.897 19.283 6.787C19.2023 6.677 19.0373 6.622 18.788 6.622H17.094C16.7273 6.622 16.478 6.78333 16.346 7.106L16.082 7.7C15.8473 8.184 15.598 8.63133 15.334 9.042C14.9673 9.64333 14.6007 10.142 14.234 10.538C14.0287 10.7433 13.871 10.8827 13.761 10.956C13.651 11.0293 13.5447 11.066 13.442 11.066C13.3687 11.066 13.3027 11.0257 13.244 10.945C13.1853 10.8643 13.156 10.7433 13.156 10.582V7.238C13.156 7.018 13.123 6.86033 13.057 6.765C12.991 6.66967 12.87 6.622 12.694 6.622H9.98799C9.85599 6.622 9.74966 6.66233 9.66899 6.743C9.58832 6.82367 9.54799 6.91533 9.54799 7.018C9.54799 7.09133 9.56266 7.15367 9.59199 7.205C9.62132 7.25633 9.67266 7.326 9.74599 7.414C9.87799 7.57533 9.98066 7.722 10.054 7.854C10.1567 8.074 10.2153 8.338 10.23 8.646V11.132C10.23 11.396 10.208 11.5683 10.164 11.649C10.12 11.7297 10.0393 11.77 9.92199 11.77C9.73132 11.77 9.46366 11.561 9.11899 11.143C8.77432 10.725 8.41866 10.1787 8.05199 9.504C7.67066 8.8 7.34799 8.05933 7.08399 7.282C6.99599 7.03267 6.89699 6.86033 6.78699 6.765C6.67699 6.66967 6.51932 6.622 6.31399 6.622H4.59799C4.37799 6.622 4.22766 6.666 4.14699 6.754C4.06632 6.842 4.02599 6.95933 4.02599 7.106C4.02599 7.29667 4.09932 7.62667 4.24599 8.096C4.45132 8.69733 4.72999 9.34267 5.08199 10.032C5.52199 10.912 6.06466 11.792 6.70999 12.672C7.41399 13.6547 8.23532 14.4173 9.17399 14.96C10.098 15.488 11.022 15.752 11.946 15.752C12.4447 15.752 12.782 15.6933 12.958 15.576C13.09 15.488 13.156 15.3267 13.156 15.092V14.41C13.156 13.9407 13.156 13.6327 13.156 13.486C13.1707 13.2953 13.211 13.1707 13.277 13.112C13.343 13.0533 13.4567 13.024 13.618 13.024C13.9993 13.024 14.564 13.3833 15.312 14.102C15.5467 14.322 15.818 14.608 16.126 14.96C16.4193 15.268 16.6247 15.466 16.742 15.554C16.918 15.686 17.1087 15.752 17.314 15.752H19.03C19.2793 15.752 19.4553 15.6897 19.558 15.565C19.6607 15.4403 19.6827 15.268 19.624 15.048C19.448 14.52 18.6707 13.552 17.292 12.144L17.006 11.858Z" fill="#0D4867"/>
</g>
<defs>
<clipPath id="clip0_1_11">
<rect width="22.02" height="22" fill="white" transform="matrix(1 0 0 -1 0.97998 22)"/>
</clipPath>
</defs>
</svg>
