<svg width="22" height="22" viewBox="0 0 22 22" fill="none" xmlns="http://www.w3.org/2000/svg">
<path d="M21.924 6.468C21.88 5.47067 21.7113 4.58333 21.418 3.806C21.1393 3.07267 20.714 2.42 20.142 1.848C19.614 1.29067 18.9687 0.865334 18.206 0.572001C17.3993 0.278667 16.5047 0.110001 15.522 0.066H15.302C14.29 0.0219994 12.8527 0 10.99 0C9.12732 0 7.68999 0.0219994 6.67799 0.066H6.45799C5.47532 0.110001 4.58066 0.278667 3.77399 0.572001C3.01132 0.865334 2.35866 1.28333 1.81599 1.826C1.27332 2.36867 0.855324 3.02133 0.56199 3.784C0.25399 4.59067 0.0853236 5.48533 0.0559902 6.468C0.0266569 7.02533 0.0046569 7.55333 -0.0100098 8.052V11V13.948C0.0046569 14.4467 0.0266569 14.9747 0.0559902 15.532C0.0999902 16.5293 0.268657 17.4167 0.56199 18.194C0.840657 18.9273 1.26599 19.58 1.83799 20.152C2.36599 20.7093 3.01132 21.1347 3.77399 21.428C4.58066 21.736 5.47532 21.9047 6.45799 21.934H6.67799C7.68999 21.978 9.12366 22 10.979 22C12.8343 22 14.268 21.978 15.28 21.934H15.522C16.49 21.89 17.3773 21.7213 18.184 21.428C18.9173 21.1347 19.5663 20.7093 20.131 20.152C20.6957 19.5947 21.121 18.9493 21.407 18.216C21.693 17.4827 21.8653 16.588 21.924 15.532V15.29C21.968 14.278 21.99 12.8443 21.99 10.989C21.99 9.13367 21.968 7.7 21.924 6.688V6.468ZM19.944 15.444C19.9147 16.2507 19.79 16.9327 19.57 17.49C19.3793 17.974 19.1043 18.3957 18.745 18.755C18.3857 19.1143 17.964 19.3893 17.48 19.58C16.9227 19.8 16.2407 19.9247 15.434 19.954C14.862 19.9833 14.3413 20.0053 13.872 20.02H10.99H8.10799C7.63866 20.0053 7.11799 19.9833 6.54599 19.954C5.73932 19.9247 5.05732 19.8 4.49999 19.58C4.03066 19.404 3.61266 19.1327 3.24599 18.766C2.86466 18.3553 2.59332 17.93 2.43199 17.49C2.21199 16.962 2.08732 16.28 2.05799 15.444C2.02866 14.8867 2.00666 14.3733 1.99199 13.904V11.022V8.14C2.00666 7.656 2.02866 7.13533 2.05799 6.578C2.08732 5.742 2.20466 5.06367 2.40999 4.543C2.61532 4.02233 2.89766 3.586 3.25699 3.234C3.61632 2.882 4.03066 2.618 4.49999 2.442C5.05732 2.222 5.73932 2.09733 6.54599 2.068C7.10332 2.03867 7.62399 2.01667 8.10799 2.002H10.99H13.894C14.3633 2.01667 14.8767 2.03867 15.434 2.068C16.2407 2.09733 16.9227 2.222 17.48 2.442C17.9347 2.60333 18.3563 2.87833 18.745 3.267C19.1337 3.65567 19.4087 4.07733 19.57 4.532C19.79 5.148 19.9147 5.83 19.944 6.578V6.798C19.988 7.78067 20.01 9.18133 20.01 11C20.01 12.8187 19.988 14.212 19.944 15.18V15.444ZM9.40599 12.914L9.16399 16.258C9.31066 16.258 9.44266 16.2287 9.55999 16.17C9.63332 16.126 9.72132 16.0527 9.82399 15.95L11.43 14.41L14.752 16.852C15.06 17.0133 15.3167 17.0463 15.522 16.951C15.7273 16.8557 15.8667 16.632 15.94 16.28L18.118 6.094C18.206 5.66867 18.1547 5.36067 17.964 5.17C17.7733 4.97933 17.5167 4.94267 17.194 5.06L4.41199 9.944C3.98666 10.12 3.76299 10.3107 3.74099 10.516C3.71899 10.7213 3.89132 10.8827 4.25799 11L7.53599 12.012L15.126 7.26C15.2433 7.18667 15.3497 7.14633 15.445 7.139C15.5403 7.13167 15.6027 7.15367 15.632 7.205C15.6613 7.25633 15.632 7.31867 15.544 7.392L9.40599 12.914Z" fill="#0D4867"/>
</svg>
