<svg width="23" height="22" viewBox="0 0 23 22" fill="none" xmlns="http://www.w3.org/2000/svg">
<g clip-path="url(#clip0_1_13)">
<path d="M8.533 21.978C7.71167 21.9487 7.04433 21.9047 6.531 21.846C6.01767 21.7873 5.54833 21.6847 5.123 21.538C3.86167 21.1273 2.857 20.3793 2.109 19.294C2.00633 19.1473 1.89267 18.9383 1.768 18.667C1.64333 18.3957 1.54433 18.15 1.471 17.93C1.32433 17.5193 1.22167 17.094 1.163 16.654C1.08967 16.1847 1.03833 15.5173 1.009 14.652C0.994333 13.8893 0.987 12.694 0.987 11.066C0.987 9.18867 1.00167 7.82467 1.031 6.974C1.075 6.02067 1.15567 5.27267 1.273 4.73C1.37567 4.26067 1.55167 3.773 1.801 3.267C2.05033 2.761 2.384 2.29167 2.802 1.859C3.22 1.42633 3.67833 1.09267 4.177 0.858C4.749 0.564667 5.31367 0.363001 5.871 0.253C6.42833 0.143 7.235 0.066 8.291 0.0219994C9.06833 -0.00733376 10.5643 -0.0146656 12.779 0C15.023 0.0146675 16.3577 0.0366669 16.783 0.066C18.3523 0.198 19.599 0.608667 20.523 1.298C21.1977 1.79667 21.7293 2.409 22.118 3.135C22.5067 3.861 22.7597 4.72267 22.877 5.72C22.921 6.04267 22.943 7.788 22.943 10.956C22.943 14.124 22.921 15.8767 22.877 16.214C22.789 17.0207 22.613 17.7357 22.349 18.359C22.085 18.9823 21.7257 19.536 21.271 20.02C20.6697 20.6507 19.9877 21.1127 19.225 21.406C18.741 21.5967 18.257 21.7323 17.773 21.813C17.289 21.8937 16.6143 21.9413 15.749 21.956C15.2063 21.9853 14.0403 22 12.251 22C10.4177 22 9.17833 21.9927 8.533 21.978ZM16.057 19.976C16.5557 19.9467 16.9333 19.9173 17.19 19.888C17.4467 19.8587 17.6997 19.8147 17.949 19.756C18.5943 19.5947 19.148 19.3087 19.61 18.898C20.072 18.4873 20.4057 17.9813 20.611 17.38C20.7283 17.0427 20.8163 16.6907 20.875 16.324C20.9337 15.9573 20.9703 15.4293 20.985 14.74C21.0143 14.0213 21.0217 12.518 21.007 10.23C20.9923 7.97133 20.9703 6.65133 20.941 6.27C20.8823 5.53667 20.7613 4.95 20.578 4.51C20.3947 4.07 20.1123 3.652 19.731 3.256C19.4817 3.02133 19.2727 2.84533 19.104 2.728C18.9353 2.61067 18.719 2.508 18.455 2.42C18.1323 2.30267 17.817 2.222 17.509 2.178C17.157 2.11933 16.6583 2.07533 16.013 2.046C15.441 2.01667 14.5317 1.99467 13.285 1.98C11.8917 1.96533 10.557 1.97267 9.281 2.002C8.049 2.03133 7.22033 2.068 6.795 2.112C6.19367 2.2 5.67667 2.34667 5.244 2.552C4.81133 2.75733 4.43367 3.03967 4.111 3.399C3.78833 3.75833 3.54633 4.17267 3.385 4.642C3.22367 5.11133 3.11367 5.70533 3.055 6.424C3.02567 6.96667 3.00367 8.19133 2.989 10.098C2.97433 12.0487 2.98167 13.4493 3.011 14.3C3.04033 15.3267 3.088 16.0563 3.154 16.489C3.22 16.9217 3.34833 17.336 3.539 17.732C3.627 17.9373 3.726 18.1207 3.836 18.282C3.946 18.4433 4.09633 18.612 4.287 18.788C4.683 19.1987 5.17433 19.4957 5.761 19.679C6.34767 19.8623 7.13967 19.9687 8.137 19.998C8.65033 20.0127 10.0033 20.02 12.196 20.02C14.3887 20.02 15.6757 20.0053 16.057 19.976ZM9.809 11.198C9.809 10.9047 9.809 10.472 9.809 9.9C9.77967 6.87867 9.77233 5.36067 9.787 5.346C9.80167 5.33133 11.0337 6.27 13.483 8.162C15.9323 10.054 17.1607 11.0147 17.168 11.044C17.1753 11.0733 15.9727 12.0707 13.56 14.036C11.1473 16.0013 9.91167 16.9913 9.853 17.006L9.831 15.29C9.81633 13.8967 9.809 12.5327 9.809 11.198Z" fill="#156A96"/>
</g>
<defs>
<clipPath id="clip0_1_13">
<rect width="21.97" height="22" fill="white" transform="matrix(1 0 0 -1 0.97998 22)"/>
</clipPath>
</defs>
</svg>
